<?xml version="1.0" encoding="utf-8"?>
<svg version="1.1" xmlns:xlink="http://www.w3.org/1999/xlink" width="647px" height="52px" xmlns="http://www.w3.org/2000/svg">
  <g transform="matrix(1 0 0 1 -15 -68 )">
    <path d="M 16 72  A 3 3 0 0 1 19 69 L 658 69  A 3 3 0 0 1 661 72 L 661 116  A 3 3 0 0 1 658 119 L 19 119  A 3 3 0 0 1 16 116 L 16 72  Z " fill-rule="nonzero" fill="#ffffff" stroke="none" fill-opacity="0" />
    <path d="M 15.5 72  A 3.5 3.5 0 0 1 19 68.5 L 658 68.5  A 3.5 3.5 0 0 1 661.5 72 L 661.5 116  A 3.5 3.5 0 0 1 658 119.5 L 19 119.5  A 3.5 3.5 0 0 1 15.5 116 L 15.5 72  Z " stroke-width="1" stroke-dasharray="9,4" stroke="#ff3399" fill="none" stroke-dashoffset="0.5" />
  </g>
</svg>